Coordinates
version=1
nRows=16
nColumns=22
inDegrees=yes

Units are S.I. units (second, meters, Newtons, ...)
If the header above contains a line with 'inDegrees', this indicates whether rotational values are in degrees (yes) or radians (no).

endheader
time	pelvis_tilt	pelvis_list	pelvis_rotation	pelvis_tx	pelvis_ty	pelvis_tz	hip_flexion_r	hip_adduction_r	hip_rotation_r	knee_angle_r	ankle_angle_r	subtalar_angle_r	hip_flexion_l	hip_adduction_l	hip_rotation_l	knee_angle_l	ankle_angle_l	subtalar_angle_l	lumbar_extension	lumbar_bending	lumbar_rotation
      2.28000000	      1.27425965	      3.98079685	    175.29712773	     -0.60091670	      0.99984920	     -0.05846793	      3.92442794	      8.30865148	      0.62735154	    -24.91183695	     17.22500803	     -0.39060387	     23.76429527	     -4.37521669	     -1.46575360	    -12.06287835	      2.18499192	      7.50065536	    -13.92334721	      3.86048990	     12.25535659
      2.29000000	      1.29356723	      4.08356083	    175.30276438	     -0.59347018	      1.00062281	     -0.05899511	      4.29168099	      8.48348510	      0.56823148	    -24.68327271	     16.90743636	     -0.56626434	     23.95386986	     -4.67347868	     -2.71841501	    -12.37192166	      2.33727466	      7.13477126	    -13.92787241	      4.03350984	     12.12871564
      2.30000000	      1.29703426	      4.17236649	    175.32960247	     -0.58617304	      1.00155414	     -0.05946300	      4.62498565	      8.63864055	      0.49751651	    -24.43094552	     16.52960969	     -0.73413833	     24.13506824	     -4.95650539	     -3.90646754	    -12.87929196	      2.46327842	      6.70269496	    -13.93892373	      4.18803636	     11.97412999
      2.31000000	      1.24801183	      4.26111219	    175.37523327	     -0.57902741	      1.00270091	     -0.05992610	      4.85434774	      8.79793037	      0.48479452	    -24.10358059	     16.10951116	     -0.81768675	     24.25899562	     -5.24068731	     -4.96944241	    -13.57577795	      2.59449546	      6.36004918	    -14.00203717	      4.32878552	     11.78191708
      2.32000000	      1.19353064	      4.32885406	    175.45187100	     -0.57202487	      1.00394357	     -0.06031278	      5.05881727	      8.92537310	      0.42528236	    -23.74781929	     15.66140969	     -0.93936855	     24.36107650	     -5.49259885	     -5.84499494	    -14.41841550	      2.69857693	      5.87104516	    -14.05544518	      4.44657863	     11.55205989
      2.33000000	      1.09844788	      4.38439780	    175.56274503	     -0.56515261	      1.00532206	     -0.06064089	      5.17651194	      9.03656149	      0.38138761	    -23.32217406	     15.18515214	     -1.01323812	     24.40745903	     -5.71582342	     -6.49142205	    -15.41081823	      2.83614179	      5.43098945	    -14.14678174	      4.54562753	     11.27073202
      2.34000000	      0.97964957	      4.43240033	    175.69806591	     -0.55836496	      1.00677202	     -0.06092257	      5.23983707	      9.13864922	      0.35392224	    -22.85165826	     14.68526789	     -1.04817858	     24.41681708	     -5.91609682	     -6.90030032	    -16.54290190	      3.02641522	      5.07577329	    -14.26358569	      4.63314010	     10.94252251
      2.35000000	      0.85191527	      4.45600614	    175.85762692	     -0.55168674	      1.00823759	     -0.06112833	      5.26700779	      9.20440119	      0.27990064	    -22.33802451	     14.19560933	     -1.14488455	     24.40247553	     -6.07222468	     -7.10488921	    -17.79775210	      3.21079237	      4.51588583	    -14.37868486	      4.69370809	     10.59724128
      2.36000000	      0.70894211	      4.47893740	    176.02242138	     -0.54506456	      1.00969346	     -0.06130881	      5.26105414	      9.26946633	      0.22386573	    -21.80346998	     13.69382686	     -1.21726141	     24.36502726	     -6.21596802	     -7.11596745	    -19.18454310	      3.47436029	      4.04632755	    -14.51500866	      4.74989198	     10.22864469
      2.37000000	      0.56292178	      4.51135353	    176.18283040	     -0.53849212	      1.01109200	     -0.06146429	      5.23075624	      9.34589000	      0.19799721	    -21.23977383	     13.19348074	     -1.26282079	     24.31992998	     -6.35982318	     -6.96655539	    -20.69905731	      3.81408285	      3.69295553	    -14.65693121	      4.81494529	      9.85892007
      2.38000000	      0.41831680	      4.53057616	    176.34444144	     -0.53200085	      1.01239419	     -0.06155987	      5.18795490	      9.39955388	      0.13078523	    -20.65771436	     12.70985413	     -1.39416514	     24.26740573	     -6.47761525	     -6.71190506	    -22.32239701	      4.17431627	      3.13756810	    -14.78835005	      4.86578718	      9.49575614
      2.39000000	      0.27570797	      4.56471224	    176.46676573	     -0.52549476	      1.01355889	     -0.06164801	      5.16414094	      9.46920851	      0.09579282	    -20.11627835	     12.24221314	     -1.51426763	     24.21303572	     -6.61430481	     -6.38890415	    -24.06402059	      4.61984381	      2.65996251	    -14.93038166	      4.92906863	      9.17203302
      2.40000000	      0.13791276	      4.62079219	    176.54292162	     -0.51900290	      1.01458118	     -0.06172931	      5.14248314	      9.56107172	      0.10385341	    -19.58031630	     11.80146178	     -1.56535157	     24.15130034	     -6.78176356	     -6.04087102	    -25.90738034	      5.13498562	      2.37762368	    -15.07372210	      5.01185189	      8.91489916
      2.41000000	      0.04419230	      4.67507431	    176.59722977	     -0.51247950	      1.01537663	     -0.06174407	      5.19303422	      9.64784700	      0.10822072	    -19.09064542	     11.35301981	     -1.75755801	     24.12505030	     -6.93885925	     -5.64730754	    -27.82532302	      5.59145085	      1.81071344	    -15.16960190	      5.09885605	      8.65561734
      2.42000000	     -0.04089443	      4.75101533	    176.57678993	     -0.50593030	      1.01599168	     -0.06178849	      5.28421999	      9.75745173	      0.15823711	    -18.67215933	     10.94637132	     -1.89649307	     24.08250594	     -7.14124294	     -5.30437695	    -29.81632621	      6.11680944	      1.38572897	    -15.26640174	      5.19703532	      8.50184347
      2.43000000	     -0.13842065	      4.83997017	    176.48843219	     -0.49937799	      1.01648195	     -0.06182624	      5.38237998	      9.87467319	      0.24584942	    -18.30411621	     10.59612024	     -1.95323962	     23.98525233	     -7.37537755	     -5.03031666	    -31.84587677	      6.68466223	      1.15090833	    -15.38608508	      5.30132364	      8.43677737
